# xmcd
#
# Track frame offsets: 
#        150
#        11510
#        41915
#        56975
#        64570
#        88705
#        95772
#        107615
#        127035
#        159195
#        162892
#        175117
#        203177
#        214265
#        221087
#        235452
#        257197
#        271152
#
# Disc length: 3728 seconds
#
# Revision: 6
# Processed by: cddbd v1.5.2PL0 Copyright (c) Steve Scherf et al.
# Submitted via: ExactAudioCopyFreeDBPlugin 1.0
#
DISCID=080e8e12
DTITLE=Bill Frisell - Blues Dream
DYEAR=2001
DGENRE=Jazz
TTITLE0=Blues dream
TTITLE1=Ron Carter
TTITLE2=Pretty flowers were made for blooming
TTITLE3=Pretty stars were made to shine
TTITLE4=Where do we go?
TTITLE5=Like dreamers do | Part one
TTITLE6=Like dreamers do | Part two
TTITLE7=Outlaws
TTITLE8=What do we do?
TTITLE9=Episode
TTITLE10=Soul merchant
TTITLE11=Greg Leisz
TTITLE12=The tractor
TTITLE13=Fifty years
TTITLE14=Slow dance
TTITLE15=Things will never be the same
TTITLE16=Dream on
TTITLE17=Blues dream (Reprise)
EXTD=YEAR: 2001
EXTT0=
EXTT1=
EXTT2=
EXTT3=
EXTT4=
EXTT5=
EXTT6=
EXTT7=
EXTT8=
EXTT9=
EXTT10=
EXTT11=
EXTT12=
EXTT13=
EXTT14=
EXTT15=
EXTT16=
EXTT17=
PLAYORDER=
